<?xml version="1.0" encoding="utf-8"?>
<svg xmlns="http://www.w3.org/2000/svg" xmlns:xlink="http://www.w3.org/1999/xlink" style="margin: auto; background: rgb(241, 242, 243) none repeat scroll 0% 0%; display: block; z-index: 1; position: relative; shape-rendering: auto;" width="1872" height="1212" preserveAspectRatio="xMidYMid" viewBox="0 0 1872 1212">
<g transform="translate(936,606) scale(1,1) translate(-936,-606)"><g transform="translate(-100 198.28712904344997) rotate(0)">
  <animateTransform attributeName="transform" type="translate" keyTimes="0;1" values="-100 198.28712904344997;1872 198.28712904344997" dur="21.73913043478261s" repeatCount="indefinite" begin="-4.80550947697752s"></animateTransform>
  <path d="M84.717,33.597c0.791-2.503,1.186-5.138,1.186-7.773C85.903,11.594,74.308,0,60.079,0 c-9.881,0-18.445,5.534-22.793,13.702c-1.581-0.527-3.426-0.791-5.138-0.791c-9.486,0-17.128,7.642-17.128,17.128 c0,1.186,0.132,2.372,0.395,3.426C6.719,34.783,0,42.424,0,51.515C0,61.66,8.169,69.829,18.314,69.829h63.373 C91.831,69.829,100,61.66,100,51.515C99.868,42.556,93.281,35.046,84.717,33.597z" fill="#71c2cc" transform="scale(0.55)"></path>
</g><g transform="translate(-100 1129.6617975345107) rotate(0)">
  <animateTransform attributeName="transform" type="translate" keyTimes="0;1" values="-100 1129.6617975345107;1872 1129.6617975345107" dur="21.73913043478261s" repeatCount="indefinite" begin="-8.814647452565518s"></animateTransform>
  <path d="M84.717,33.597c0.791-2.503,1.186-5.138,1.186-7.773C85.903,11.594,74.308,0,60.079,0 c-9.881,0-18.445,5.534-22.793,13.702c-1.581-0.527-3.426-0.791-5.138-0.791c-9.486,0-17.128,7.642-17.128,17.128 c0,1.186,0.132,2.372,0.395,3.426C6.719,34.783,0,42.424,0,51.515C0,61.66,8.169,69.829,18.314,69.829h63.373 C91.831,69.829,100,61.66,100,51.515C99.868,42.556,93.281,35.046,84.717,33.597z" fill="#71c2cc" transform="scale(0.55)"></path>
</g><g transform="translate(-100 711.8382452056679) rotate(0)">
  <animateTransform attributeName="transform" type="translate" keyTimes="0;1" values="-100 711.8382452056679;1872 711.8382452056679" dur="21.73913043478261s" repeatCount="indefinite" begin="-2.912754128406419s"></animateTransform>
  <path d="M84.717,33.597c0.791-2.503,1.186-5.138,1.186-7.773C85.903,11.594,74.308,0,60.079,0 c-9.881,0-18.445,5.534-22.793,13.702c-1.581-0.527-3.426-0.791-5.138-0.791c-9.486,0-17.128,7.642-17.128,17.128 c0,1.186,0.132,2.372,0.395,3.426C6.719,34.783,0,42.424,0,51.515C0,61.66,8.169,69.829,18.314,69.829h63.373 C91.831,69.829,100,61.66,100,51.515C99.868,42.556,93.281,35.046,84.717,33.597z" fill="#71c2cc" transform="scale(0.55)"></path>
</g><g transform="translate(-100 494.28431979873125) rotate(0)">
  <animateTransform attributeName="transform" type="translate" keyTimes="0;1" values="-100 494.28431979873125;1872 494.28431979873125" dur="21.73913043478261s" repeatCount="indefinite" begin="-5.817257493802819s"></animateTransform>
  <path d="M84.717,33.597c0.791-2.503,1.186-5.138,1.186-7.773C85.903,11.594,74.308,0,60.079,0 c-9.881,0-18.445,5.534-22.793,13.702c-1.581-0.527-3.426-0.791-5.138-0.791c-9.486,0-17.128,7.642-17.128,17.128 c0,1.186,0.132,2.372,0.395,3.426C6.719,34.783,0,42.424,0,51.515C0,61.66,8.169,69.829,18.314,69.829h63.373 C91.831,69.829,100,61.66,100,51.515C99.868,42.556,93.281,35.046,84.717,33.597z" fill="#71c2cc" transform="scale(0.55)"></path>
</g><g transform="translate(-100 377.3606064259022) rotate(0)">
  <animateTransform attributeName="transform" type="translate" keyTimes="0;1" values="-100 377.3606064259022;1872 377.3606064259022" dur="21.73913043478261s" repeatCount="indefinite" begin="-16.73333198091013s"></animateTransform>
  <path d="M84.717,33.597c0.791-2.503,1.186-5.138,1.186-7.773C85.903,11.594,74.308,0,60.079,0 c-9.881,0-18.445,5.534-22.793,13.702c-1.581-0.527-3.426-0.791-5.138-0.791c-9.486,0-17.128,7.642-17.128,17.128 c0,1.186,0.132,2.372,0.395,3.426C6.719,34.783,0,42.424,0,51.515C0,61.66,8.169,69.829,18.314,69.829h63.373 C91.831,69.829,100,61.66,100,51.515C99.868,42.556,93.281,35.046,84.717,33.597z" fill="#71c2cc" transform="scale(0.55)"></path>
</g><g transform="translate(-100 850.8387324977548) rotate(0)">
  <animateTransform attributeName="transform" type="translate" keyTimes="0;1" values="-100 850.8387324977548;1872 850.8387324977548" dur="21.73913043478261s" repeatCount="indefinite" begin="-21.23019008556094s"></animateTransform>
  <path d="M84.717,33.597c0.791-2.503,1.186-5.138,1.186-7.773C85.903,11.594,74.308,0,60.079,0 c-9.881,0-18.445,5.534-22.793,13.702c-1.581-0.527-3.426-0.791-5.138-0.791c-9.486,0-17.128,7.642-17.128,17.128 c0,1.186,0.132,2.372,0.395,3.426C6.719,34.783,0,42.424,0,51.515C0,61.66,8.169,69.829,18.314,69.829h63.373 C91.831,69.829,100,61.66,100,51.515C99.868,42.556,93.281,35.046,84.717,33.597z" fill="#71c2cc" transform="scale(0.55)"></path>
</g><g transform="translate(-100 458.0885540740573) rotate(0)">
  <animateTransform attributeName="transform" type="translate" keyTimes="0;1" values="-100 458.0885540740573;1872 458.0885540740573" dur="21.73913043478261s" repeatCount="indefinite" begin="-4.65510657155248s"></animateTransform>
  <path d="M84.717,33.597c0.791-2.503,1.186-5.138,1.186-7.773C85.903,11.594,74.308,0,60.079,0 c-9.881,0-18.445,5.534-22.793,13.702c-1.581-0.527-3.426-0.791-5.138-0.791c-9.486,0-17.128,7.642-17.128,17.128 c0,1.186,0.132,2.372,0.395,3.426C6.719,34.783,0,42.424,0,51.515C0,61.66,8.169,69.829,18.314,69.829h63.373 C91.831,69.829,100,61.66,100,51.515C99.868,42.556,93.281,35.046,84.717,33.597z" fill="#71c2cc" transform="scale(0.55)"></path>
</g><g transform="translate(-100 961.9892542618959) rotate(0)">
  <animateTransform attributeName="transform" type="translate" keyTimes="0;1" values="-100 961.9892542618959;1872 961.9892542618959" dur="21.73913043478261s" repeatCount="indefinite" begin="-10.502676424813876s"></animateTransform>
  <path d="M84.717,33.597c0.791-2.503,1.186-5.138,1.186-7.773C85.903,11.594,74.308,0,60.079,0 c-9.881,0-18.445,5.534-22.793,13.702c-1.581-0.527-3.426-0.791-5.138-0.791c-9.486,0-17.128,7.642-17.128,17.128 c0,1.186,0.132,2.372,0.395,3.426C6.719,34.783,0,42.424,0,51.515C0,61.66,8.169,69.829,18.314,69.829h63.373 C91.831,69.829,100,61.66,100,51.515C99.868,42.556,93.281,35.046,84.717,33.597z" fill="#71c2cc" transform="scale(0.55)"></path>
</g><g transform="translate(-100 476.6554983030221) rotate(0)">
  <animateTransform attributeName="transform" type="translate" keyTimes="0;1" values="-100 476.6554983030221;1872 476.6554983030221" dur="21.73913043478261s" repeatCount="indefinite" begin="-20.479138629835973s"></animateTransform>
  <path d="M84.717,33.597c0.791-2.503,1.186-5.138,1.186-7.773C85.903,11.594,74.308,0,60.079,0 c-9.881,0-18.445,5.534-22.793,13.702c-1.581-0.527-3.426-0.791-5.138-0.791c-9.486,0-17.128,7.642-17.128,17.128 c0,1.186,0.132,2.372,0.395,3.426C6.719,34.783,0,42.424,0,51.515C0,61.66,8.169,69.829,18.314,69.829h63.373 C91.831,69.829,100,61.66,100,51.515C99.868,42.556,93.281,35.046,84.717,33.597z" fill="#71c2cc" transform="scale(0.55)"></path>
</g><g transform="translate(-100 357.83408278009676) rotate(0)">
  <animateTransform attributeName="transform" type="translate" keyTimes="0;1" values="-100 357.83408278009676;1872 357.83408278009676" dur="21.73913043478261s" repeatCount="indefinite" begin="-16.055218869451192s"></animateTransform>
  <path d="M84.717,33.597c0.791-2.503,1.186-5.138,1.186-7.773C85.903,11.594,74.308,0,60.079,0 c-9.881,0-18.445,5.534-22.793,13.702c-1.581-0.527-3.426-0.791-5.138-0.791c-9.486,0-17.128,7.642-17.128,17.128 c0,1.186,0.132,2.372,0.395,3.426C6.719,34.783,0,42.424,0,51.515C0,61.66,8.169,69.829,18.314,69.829h63.373 C91.831,69.829,100,61.66,100,51.515C99.868,42.556,93.281,35.046,84.717,33.597z" fill="#71c2cc" transform="scale(0.55)"></path>
</g><g transform="translate(-100 53.239356965795885) rotate(0)">
  <animateTransform attributeName="transform" type="translate" keyTimes="0;1" values="-100 53.239356965795885;1872 53.239356965795885" dur="21.73913043478261s" repeatCount="indefinite" begin="-17.78030782501578s"></animateTransform>
  <path d="M84.717,33.597c0.791-2.503,1.186-5.138,1.186-7.773C85.903,11.594,74.308,0,60.079,0 c-9.881,0-18.445,5.534-22.793,13.702c-1.581-0.527-3.426-0.791-5.138-0.791c-9.486,0-17.128,7.642-17.128,17.128 c0,1.186,0.132,2.372,0.395,3.426C6.719,34.783,0,42.424,0,51.515C0,61.66,8.169,69.829,18.314,69.829h63.373 C91.831,69.829,100,61.66,100,51.515C99.868,42.556,93.281,35.046,84.717,33.597z" fill="#71c2cc" transform="scale(0.55)"></path>
</g><g transform="translate(-100 908.1464087609202) rotate(0)">
  <animateTransform attributeName="transform" type="translate" keyTimes="0;1" values="-100 908.1464087609202;1872 908.1464087609202" dur="10.869565217391305s" repeatCount="indefinite" begin="-18.559309985360215s"></animateTransform>
  <path d="M84.717,33.597c0.791-2.503,1.186-5.138,1.186-7.773C85.903,11.594,74.308,0,60.079,0 c-9.881,0-18.445,5.534-22.793,13.702c-1.581-0.527-3.426-0.791-5.138-0.791c-9.486,0-17.128,7.642-17.128,17.128 c0,1.186,0.132,2.372,0.395,3.426C6.719,34.783,0,42.424,0,51.515C0,61.66,8.169,69.829,18.314,69.829h63.373 C91.831,69.829,100,61.66,100,51.515C99.868,42.556,93.281,35.046,84.717,33.597z" fill="#d8ebf9" transform="scale(0.7)"></path>
</g><g transform="translate(-100 193.83864042214427) rotate(0)">
  <animateTransform attributeName="transform" type="translate" keyTimes="0;1" values="-100 193.83864042214427;1872 193.83864042214427" dur="10.869565217391305s" repeatCount="indefinite" begin="-15.598266648838807s"></animateTransform>
  <path d="M84.717,33.597c0.791-2.503,1.186-5.138,1.186-7.773C85.903,11.594,74.308,0,60.079,0 c-9.881,0-18.445,5.534-22.793,13.702c-1.581-0.527-3.426-0.791-5.138-0.791c-9.486,0-17.128,7.642-17.128,17.128 c0,1.186,0.132,2.372,0.395,3.426C6.719,34.783,0,42.424,0,51.515C0,61.66,8.169,69.829,18.314,69.829h63.373 C91.831,69.829,100,61.66,100,51.515C99.868,42.556,93.281,35.046,84.717,33.597z" fill="#d8ebf9" transform="scale(0.7)"></path>
</g><g transform="translate(-100 673.0629905100393) rotate(0)">
  <animateTransform attributeName="transform" type="translate" keyTimes="0;1" values="-100 673.0629905100393;1872 673.0629905100393" dur="10.869565217391305s" repeatCount="indefinite" begin="-9.45436486426753s"></animateTransform>
  <path d="M84.717,33.597c0.791-2.503,1.186-5.138,1.186-7.773C85.903,11.594,74.308,0,60.079,0 c-9.881,0-18.445,5.534-22.793,13.702c-1.581-0.527-3.426-0.791-5.138-0.791c-9.486,0-17.128,7.642-17.128,17.128 c0,1.186,0.132,2.372,0.395,3.426C6.719,34.783,0,42.424,0,51.515C0,61.66,8.169,69.829,18.314,69.829h63.373 C91.831,69.829,100,61.66,100,51.515C99.868,42.556,93.281,35.046,84.717,33.597z" fill="#d8ebf9" transform="scale(0.7)"></path>
</g><g transform="translate(-100 58.04271354727373) rotate(0)">
  <animateTransform attributeName="transform" type="translate" keyTimes="0;1" values="-100 58.04271354727373;1872 58.04271354727373" dur="10.869565217391305s" repeatCount="indefinite" begin="-7.2367523143530885s"></animateTransform>
  <path d="M84.717,33.597c0.791-2.503,1.186-5.138,1.186-7.773C85.903,11.594,74.308,0,60.079,0 c-9.881,0-18.445,5.534-22.793,13.702c-1.581-0.527-3.426-0.791-5.138-0.791c-9.486,0-17.128,7.642-17.128,17.128 c0,1.186,0.132,2.372,0.395,3.426C6.719,34.783,0,42.424,0,51.515C0,61.66,8.169,69.829,18.314,69.829h63.373 C91.831,69.829,100,61.66,100,51.515C99.868,42.556,93.281,35.046,84.717,33.597z" fill="#d8ebf9" transform="scale(0.7)"></path>
</g><g transform="translate(-100 218.83533780443514) rotate(0)">
  <animateTransform attributeName="transform" type="translate" keyTimes="0;1" values="-100 218.83533780443514;1872 218.83533780443514" dur="10.869565217391305s" repeatCount="indefinite" begin="-9.36678339866284s"></animateTransform>
  <path d="M84.717,33.597c0.791-2.503,1.186-5.138,1.186-7.773C85.903,11.594,74.308,0,60.079,0 c-9.881,0-18.445,5.534-22.793,13.702c-1.581-0.527-3.426-0.791-5.138-0.791c-9.486,0-17.128,7.642-17.128,17.128 c0,1.186,0.132,2.372,0.395,3.426C6.719,34.783,0,42.424,0,51.515C0,61.66,8.169,69.829,18.314,69.829h63.373 C91.831,69.829,100,61.66,100,51.515C99.868,42.556,93.281,35.046,84.717,33.597z" fill="#d8ebf9" transform="scale(0.7)"></path>
</g><g transform="translate(-100 49.19424586479316) rotate(0)">
  <animateTransform attributeName="transform" type="translate" keyTimes="0;1" values="-100 49.19424586479316;1872 49.19424586479316" dur="10.869565217391305s" repeatCount="indefinite" begin="-8.02866359697491s"></animateTransform>
  <path d="M84.717,33.597c0.791-2.503,1.186-5.138,1.186-7.773C85.903,11.594,74.308,0,60.079,0 c-9.881,0-18.445,5.534-22.793,13.702c-1.581-0.527-3.426-0.791-5.138-0.791c-9.486,0-17.128,7.642-17.128,17.128 c0,1.186,0.132,2.372,0.395,3.426C6.719,34.783,0,42.424,0,51.515C0,61.66,8.169,69.829,18.314,69.829h63.373 C91.831,69.829,100,61.66,100,51.515C99.868,42.556,93.281,35.046,84.717,33.597z" fill="#d8ebf9" transform="scale(0.7)"></path>
</g><g transform="translate(-100 921.019458079424) rotate(0)">
  <animateTransform attributeName="transform" type="translate" keyTimes="0;1" values="-100 921.019458079424;1872 921.019458079424" dur="10.869565217391305s" repeatCount="indefinite" begin="-10.133015832642268s"></animateTransform>
  <path d="M84.717,33.597c0.791-2.503,1.186-5.138,1.186-7.773C85.903,11.594,74.308,0,60.079,0 c-9.881,0-18.445,5.534-22.793,13.702c-1.581-0.527-3.426-0.791-5.138-0.791c-9.486,0-17.128,7.642-17.128,17.128 c0,1.186,0.132,2.372,0.395,3.426C6.719,34.783,0,42.424,0,51.515C0,61.66,8.169,69.829,18.314,69.829h63.373 C91.831,69.829,100,61.66,100,51.515C99.868,42.556,93.281,35.046,84.717,33.597z" fill="#d8ebf9" transform="scale(0.7)"></path>
</g><g transform="translate(-100 1123.6204994627112) rotate(0)">
  <animateTransform attributeName="transform" type="translate" keyTimes="0;1" values="-100 1123.6204994627112;1872 1123.6204994627112" dur="10.869565217391305s" repeatCount="indefinite" begin="-11.411935862113973s"></animateTransform>
  <path d="M84.717,33.597c0.791-2.503,1.186-5.138,1.186-7.773C85.903,11.594,74.308,0,60.079,0 c-9.881,0-18.445,5.534-22.793,13.702c-1.581-0.527-3.426-0.791-5.138-0.791c-9.486,0-17.128,7.642-17.128,17.128 c0,1.186,0.132,2.372,0.395,3.426C6.719,34.783,0,42.424,0,51.515C0,61.66,8.169,69.829,18.314,69.829h63.373 C91.831,69.829,100,61.66,100,51.515C99.868,42.556,93.281,35.046,84.717,33.597z" fill="#d8ebf9" transform="scale(0.7)"></path>
</g><g transform="translate(-100 694.1873537188943) rotate(0)">
  <animateTransform attributeName="transform" type="translate" keyTimes="0;1" values="-100 694.1873537188943;1872 694.1873537188943" dur="10.869565217391305s" repeatCount="indefinite" begin="-5.495849704322971s"></animateTransform>
  <path d="M84.717,33.597c0.791-2.503,1.186-5.138,1.186-7.773C85.903,11.594,74.308,0,60.079,0 c-9.881,0-18.445,5.534-22.793,13.702c-1.581-0.527-3.426-0.791-5.138-0.791c-9.486,0-17.128,7.642-17.128,17.128 c0,1.186,0.132,2.372,0.395,3.426C6.719,34.783,0,42.424,0,51.515C0,61.66,8.169,69.829,18.314,69.829h63.373 C91.831,69.829,100,61.66,100,51.515C99.868,42.556,93.281,35.046,84.717,33.597z" fill="#d8ebf9" transform="scale(0.7)"></path>
</g><g transform="translate(-100 385.3358635871494) rotate(0)">
  <animateTransform attributeName="transform" type="translate" keyTimes="0;1" values="-100 385.3358635871494;1872 385.3358635871494" dur="10.869565217391305s" repeatCount="indefinite" begin="-4.7401484264244464s"></animateTransform>
  <path d="M84.717,33.597c0.791-2.503,1.186-5.138,1.186-7.773C85.903,11.594,74.308,0,60.079,0 c-9.881,0-18.445,5.534-22.793,13.702c-1.581-0.527-3.426-0.791-5.138-0.791c-9.486,0-17.128,7.642-17.128,17.128 c0,1.186,0.132,2.372,0.395,3.426C6.719,34.783,0,42.424,0,51.515C0,61.66,8.169,69.829,18.314,69.829h63.373 C91.831,69.829,100,61.66,100,51.515C99.868,42.556,93.281,35.046,84.717,33.597z" fill="#d8ebf9" transform="scale(0.7)"></path>
</g><g transform="translate(-100 880.3455544735646) rotate(0)">
  <animateTransform attributeName="transform" type="translate" keyTimes="0;1" values="-100 880.3455544735646;1872 880.3455544735646" dur="10.869565217391305s" repeatCount="indefinite" begin="-12.820837175183756s"></animateTransform>
  <path d="M84.717,33.597c0.791-2.503,1.186-5.138,1.186-7.773C85.903,11.594,74.308,0,60.079,0 c-9.881,0-18.445,5.534-22.793,13.702c-1.581-0.527-3.426-0.791-5.138-0.791c-9.486,0-17.128,7.642-17.128,17.128 c0,1.186,0.132,2.372,0.395,3.426C6.719,34.783,0,42.424,0,51.515C0,61.66,8.169,69.829,18.314,69.829h63.373 C91.831,69.829,100,61.66,100,51.515C99.868,42.556,93.281,35.046,84.717,33.597z" fill="#d8ebf9" transform="scale(0.7)"></path>
</g><g transform="translate(-100 360.1147804821724) rotate(0)">
  <animateTransform attributeName="transform" type="translate" keyTimes="0;1" values="-100 360.1147804821724;1872 360.1147804821724" dur="7.246376811594203s" repeatCount="indefinite" begin="-12.39577226451438s"></animateTransform>
  <path d="M84.717,33.597c0.791-2.503,1.186-5.138,1.186-7.773C85.903,11.594,74.308,0,60.079,0 c-9.881,0-18.445,5.534-22.793,13.702c-1.581-0.527-3.426-0.791-5.138-0.791c-9.486,0-17.128,7.642-17.128,17.128 c0,1.186,0.132,2.372,0.395,3.426C6.719,34.783,0,42.424,0,51.515C0,61.66,8.169,69.829,18.314,69.829h63.373 C91.831,69.829,100,61.66,100,51.515C99.868,42.556,93.281,35.046,84.717,33.597z" fill="#5699d2" transform="scale(0.85)"></path>
</g><g transform="translate(-100 974.9154379602002) rotate(0)">
  <animateTransform attributeName="transform" type="translate" keyTimes="0;1" values="-100 974.9154379602002;1872 974.9154379602002" dur="7.246376811594203s" repeatCount="indefinite" begin="-15.132234520707451s"></animateTransform>
  <path d="M84.717,33.597c0.791-2.503,1.186-5.138,1.186-7.773C85.903,11.594,74.308,0,60.079,0 c-9.881,0-18.445,5.534-22.793,13.702c-1.581-0.527-3.426-0.791-5.138-0.791c-9.486,0-17.128,7.642-17.128,17.128 c0,1.186,0.132,2.372,0.395,3.426C6.719,34.783,0,42.424,0,51.515C0,61.66,8.169,69.829,18.314,69.829h63.373 C91.831,69.829,100,61.66,100,51.515C99.868,42.556,93.281,35.046,84.717,33.597z" fill="#5699d2" transform="scale(0.85)"></path>
</g><g transform="translate(-100 947.5755454407965) rotate(0)">
  <animateTransform attributeName="transform" type="translate" keyTimes="0;1" values="-100 947.5755454407965;1872 947.5755454407965" dur="7.246376811594203s" repeatCount="indefinite" begin="-11.026105032309989s"></animateTransform>
  <path d="M84.717,33.597c0.791-2.503,1.186-5.138,1.186-7.773C85.903,11.594,74.308,0,60.079,0 c-9.881,0-18.445,5.534-22.793,13.702c-1.581-0.527-3.426-0.791-5.138-0.791c-9.486,0-17.128,7.642-17.128,17.128 c0,1.186,0.132,2.372,0.395,3.426C6.719,34.783,0,42.424,0,51.515C0,61.66,8.169,69.829,18.314,69.829h63.373 C91.831,69.829,100,61.66,100,51.515C99.868,42.556,93.281,35.046,84.717,33.597z" fill="#5699d2" transform="scale(0.85)"></path>
</g><g transform="translate(-100 600.3412286025762) rotate(0)">
  <animateTransform attributeName="transform" type="translate" keyTimes="0;1" values="-100 600.3412286025762;1872 600.3412286025762" dur="7.246376811594203s" repeatCount="indefinite" begin="-8.388010910272365s"></animateTransform>
  <path d="M84.717,33.597c0.791-2.503,1.186-5.138,1.186-7.773C85.903,11.594,74.308,0,60.079,0 c-9.881,0-18.445,5.534-22.793,13.702c-1.581-0.527-3.426-0.791-5.138-0.791c-9.486,0-17.128,7.642-17.128,17.128 c0,1.186,0.132,2.372,0.395,3.426C6.719,34.783,0,42.424,0,51.515C0,61.66,8.169,69.829,18.314,69.829h63.373 C91.831,69.829,100,61.66,100,51.515C99.868,42.556,93.281,35.046,84.717,33.597z" fill="#5699d2" transform="scale(0.85)"></path>
</g><g transform="translate(-100 485.389236077048) rotate(0)">
  <animateTransform attributeName="transform" type="translate" keyTimes="0;1" values="-100 485.389236077048;1872 485.389236077048" dur="7.246376811594203s" repeatCount="indefinite" begin="-10.453346526245472s"></animateTransform>
  <path d="M84.717,33.597c0.791-2.503,1.186-5.138,1.186-7.773C85.903,11.594,74.308,0,60.079,0 c-9.881,0-18.445,5.534-22.793,13.702c-1.581-0.527-3.426-0.791-5.138-0.791c-9.486,0-17.128,7.642-17.128,17.128 c0,1.186,0.132,2.372,0.395,3.426C6.719,34.783,0,42.424,0,51.515C0,61.66,8.169,69.829,18.314,69.829h63.373 C91.831,69.829,100,61.66,100,51.515C99.868,42.556,93.281,35.046,84.717,33.597z" fill="#5699d2" transform="scale(0.85)"></path>
</g><g transform="translate(-100 468.19598766442135) rotate(0)">
  <animateTransform attributeName="transform" type="translate" keyTimes="0;1" values="-100 468.19598766442135;1872 468.19598766442135" dur="7.246376811594203s" repeatCount="indefinite" begin="-0.26452643719694213s"></animateTransform>
  <path d="M84.717,33.597c0.791-2.503,1.186-5.138,1.186-7.773C85.903,11.594,74.308,0,60.079,0 c-9.881,0-18.445,5.534-22.793,13.702c-1.581-0.527-3.426-0.791-5.138-0.791c-9.486,0-17.128,7.642-17.128,17.128 c0,1.186,0.132,2.372,0.395,3.426C6.719,34.783,0,42.424,0,51.515C0,61.66,8.169,69.829,18.314,69.829h63.373 C91.831,69.829,100,61.66,100,51.515C99.868,42.556,93.281,35.046,84.717,33.597z" fill="#5699d2" transform="scale(0.85)"></path>
</g><g transform="translate(-100 106.6429143607546) rotate(0)">
  <animateTransform attributeName="transform" type="translate" keyTimes="0;1" values="-100 106.6429143607546;1872 106.6429143607546" dur="7.246376811594203s" repeatCount="indefinite" begin="-16.773093488308547s"></animateTransform>
  <path d="M84.717,33.597c0.791-2.503,1.186-5.138,1.186-7.773C85.903,11.594,74.308,0,60.079,0 c-9.881,0-18.445,5.534-22.793,13.702c-1.581-0.527-3.426-0.791-5.138-0.791c-9.486,0-17.128,7.642-17.128,17.128 c0,1.186,0.132,2.372,0.395,3.426C6.719,34.783,0,42.424,0,51.515C0,61.66,8.169,69.829,18.314,69.829h63.373 C91.831,69.829,100,61.66,100,51.515C99.868,42.556,93.281,35.046,84.717,33.597z" fill="#5699d2" transform="scale(0.85)"></path>
</g><g transform="translate(-100 1083.1492798993609) rotate(0)">
  <animateTransform attributeName="transform" type="translate" keyTimes="0;1" values="-100 1083.1492798993609;1872 1083.1492798993609" dur="7.246376811594203s" repeatCount="indefinite" begin="-11.748892856719424s"></animateTransform>
  <path d="M84.717,33.597c0.791-2.503,1.186-5.138,1.186-7.773C85.903,11.594,74.308,0,60.079,0 c-9.881,0-18.445,5.534-22.793,13.702c-1.581-0.527-3.426-0.791-5.138-0.791c-9.486,0-17.128,7.642-17.128,17.128 c0,1.186,0.132,2.372,0.395,3.426C6.719,34.783,0,42.424,0,51.515C0,61.66,8.169,69.829,18.314,69.829h63.373 C91.831,69.829,100,61.66,100,51.515C99.868,42.556,93.281,35.046,84.717,33.597z" fill="#5699d2" transform="scale(0.85)"></path>
</g><g transform="translate(-100 571.5500663660913) rotate(0)">
  <animateTransform attributeName="transform" type="translate" keyTimes="0;1" values="-100 571.5500663660913;1872 571.5500663660913" dur="7.246376811594203s" repeatCount="indefinite" begin="-20.35203749797916s"></animateTransform>
  <path d="M84.717,33.597c0.791-2.503,1.186-5.138,1.186-7.773C85.903,11.594,74.308,0,60.079,0 c-9.881,0-18.445,5.534-22.793,13.702c-1.581-0.527-3.426-0.791-5.138-0.791c-9.486,0-17.128,7.642-17.128,17.128 c0,1.186,0.132,2.372,0.395,3.426C6.719,34.783,0,42.424,0,51.515C0,61.66,8.169,69.829,18.314,69.829h63.373 C91.831,69.829,100,61.66,100,51.515C99.868,42.556,93.281,35.046,84.717,33.597z" fill="#5699d2" transform="scale(0.85)"></path>
</g><g transform="translate(-100 675.9800538939012) rotate(0)">
  <animateTransform attributeName="transform" type="translate" keyTimes="0;1" values="-100 675.9800538939012;1872 675.9800538939012" dur="7.246376811594203s" repeatCount="indefinite" begin="-5.558587298727385s"></animateTransform>
  <path d="M84.717,33.597c0.791-2.503,1.186-5.138,1.186-7.773C85.903,11.594,74.308,0,60.079,0 c-9.881,0-18.445,5.534-22.793,13.702c-1.581-0.527-3.426-0.791-5.138-0.791c-9.486,0-17.128,7.642-17.128,17.128 c0,1.186,0.132,2.372,0.395,3.426C6.719,34.783,0,42.424,0,51.515C0,61.66,8.169,69.829,18.314,69.829h63.373 C91.831,69.829,100,61.66,100,51.515C99.868,42.556,93.281,35.046,84.717,33.597z" fill="#5699d2" transform="scale(0.85)"></path>
</g><g transform="translate(-100 232.34154022805924) rotate(0)">
  <animateTransform attributeName="transform" type="translate" keyTimes="0;1" values="-100 232.34154022805924;1872 232.34154022805924" dur="7.246376811594203s" repeatCount="indefinite" begin="-12.686346452440024s"></animateTransform>
  <path d="M84.717,33.597c0.791-2.503,1.186-5.138,1.186-7.773C85.903,11.594,74.308,0,60.079,0 c-9.881,0-18.445,5.534-22.793,13.702c-1.581-0.527-3.426-0.791-5.138-0.791c-9.486,0-17.128,7.642-17.128,17.128 c0,1.186,0.132,2.372,0.395,3.426C6.719,34.783,0,42.424,0,51.515C0,61.66,8.169,69.829,18.314,69.829h63.373 C91.831,69.829,100,61.66,100,51.515C99.868,42.556,93.281,35.046,84.717,33.597z" fill="#5699d2" transform="scale(0.85)"></path>
</g><g transform="translate(-100 927.0767276474647) rotate(0)">
  <animateTransform attributeName="transform" type="translate" keyTimes="0;1" values="-100 927.0767276474647;1872 927.0767276474647" dur="5.434782608695652s" repeatCount="indefinite" begin="-0.1407399415718479s"></animateTransform>
  <path d="M84.717,33.597c0.791-2.503,1.186-5.138,1.186-7.773C85.903,11.594,74.308,0,60.079,0 c-9.881,0-18.445,5.534-22.793,13.702c-1.581-0.527-3.426-0.791-5.138-0.791c-9.486,0-17.128,7.642-17.128,17.128 c0,1.186,0.132,2.372,0.395,3.426C6.719,34.783,0,42.424,0,51.515C0,61.66,8.169,69.829,18.314,69.829h63.373 C91.831,69.829,100,61.66,100,51.515C99.868,42.556,93.281,35.046,84.717,33.597z" fill="#1d3f72" transform="scale(1)"></path>
</g><g transform="translate(-100 203.61840625200267) rotate(0)">
  <animateTransform attributeName="transform" type="translate" keyTimes="0;1" values="-100 203.61840625200267;1872 203.61840625200267" dur="5.434782608695652s" repeatCount="indefinite" begin="-10.617230004652809s"></animateTransform>
  <path d="M84.717,33.597c0.791-2.503,1.186-5.138,1.186-7.773C85.903,11.594,74.308,0,60.079,0 c-9.881,0-18.445,5.534-22.793,13.702c-1.581-0.527-3.426-0.791-5.138-0.791c-9.486,0-17.128,7.642-17.128,17.128 c0,1.186,0.132,2.372,0.395,3.426C6.719,34.783,0,42.424,0,51.515C0,61.66,8.169,69.829,18.314,69.829h63.373 C91.831,69.829,100,61.66,100,51.515C99.868,42.556,93.281,35.046,84.717,33.597z" fill="#1d3f72" transform="scale(1)"></path>
</g><g transform="translate(-100 102.78571759349141) rotate(0)">
  <animateTransform attributeName="transform" type="translate" keyTimes="0;1" values="-100 102.78571759349141;1872 102.78571759349141" dur="5.434782608695652s" repeatCount="indefinite" begin="-15.36362811041612s"></animateTransform>
  <path d="M84.717,33.597c0.791-2.503,1.186-5.138,1.186-7.773C85.903,11.594,74.308,0,60.079,0 c-9.881,0-18.445,5.534-22.793,13.702c-1.581-0.527-3.426-0.791-5.138-0.791c-9.486,0-17.128,7.642-17.128,17.128 c0,1.186,0.132,2.372,0.395,3.426C6.719,34.783,0,42.424,0,51.515C0,61.66,8.169,69.829,18.314,69.829h63.373 C91.831,69.829,100,61.66,100,51.515C99.868,42.556,93.281,35.046,84.717,33.597z" fill="#1d3f72" transform="scale(1)"></path>
</g><g transform="translate(-100 688.642239351018) rotate(0)">
  <animateTransform attributeName="transform" type="translate" keyTimes="0;1" values="-100 688.642239351018;1872 688.642239351018" dur="5.434782608695652s" repeatCount="indefinite" begin="-3.3096965224201624s"></animateTransform>
  <path d="M84.717,33.597c0.791-2.503,1.186-5.138,1.186-7.773C85.903,11.594,74.308,0,60.079,0 c-9.881,0-18.445,5.534-22.793,13.702c-1.581-0.527-3.426-0.791-5.138-0.791c-9.486,0-17.128,7.642-17.128,17.128 c0,1.186,0.132,2.372,0.395,3.426C6.719,34.783,0,42.424,0,51.515C0,61.66,8.169,69.829,18.314,69.829h63.373 C91.831,69.829,100,61.66,100,51.515C99.868,42.556,93.281,35.046,84.717,33.597z" fill="#1d3f72" transform="scale(1)"></path>
</g><g transform="translate(-100 671.5009285998962) rotate(0)">
  <animateTransform attributeName="transform" type="translate" keyTimes="0;1" values="-100 671.5009285998962;1872 671.5009285998962" dur="5.434782608695652s" repeatCount="indefinite" begin="-3.462648853432936s"></animateTransform>
  <path d="M84.717,33.597c0.791-2.503,1.186-5.138,1.186-7.773C85.903,11.594,74.308,0,60.079,0 c-9.881,0-18.445,5.534-22.793,13.702c-1.581-0.527-3.426-0.791-5.138-0.791c-9.486,0-17.128,7.642-17.128,17.128 c0,1.186,0.132,2.372,0.395,3.426C6.719,34.783,0,42.424,0,51.515C0,61.66,8.169,69.829,18.314,69.829h63.373 C91.831,69.829,100,61.66,100,51.515C99.868,42.556,93.281,35.046,84.717,33.597z" fill="#1d3f72" transform="scale(1)"></path>
</g><g transform="translate(-100 587.5512313303792) rotate(0)">
  <animateTransform attributeName="transform" type="translate" keyTimes="0;1" values="-100 587.5512313303792;1872 587.5512313303792" dur="5.434782608695652s" repeatCount="indefinite" begin="-10.573894128167018s"></animateTransform>
  <path d="M84.717,33.597c0.791-2.503,1.186-5.138,1.186-7.773C85.903,11.594,74.308,0,60.079,0 c-9.881,0-18.445,5.534-22.793,13.702c-1.581-0.527-3.426-0.791-5.138-0.791c-9.486,0-17.128,7.642-17.128,17.128 c0,1.186,0.132,2.372,0.395,3.426C6.719,34.783,0,42.424,0,51.515C0,61.66,8.169,69.829,18.314,69.829h63.373 C91.831,69.829,100,61.66,100,51.515C99.868,42.556,93.281,35.046,84.717,33.597z" fill="#1d3f72" transform="scale(1)"></path>
</g><g transform="translate(-100 578.1473213160859) rotate(0)">
  <animateTransform attributeName="transform" type="translate" keyTimes="0;1" values="-100 578.1473213160859;1872 578.1473213160859" dur="5.434782608695652s" repeatCount="indefinite" begin="-14.524206598913835s"></animateTransform>
  <path d="M84.717,33.597c0.791-2.503,1.186-5.138,1.186-7.773C85.903,11.594,74.308,0,60.079,0 c-9.881,0-18.445,5.534-22.793,13.702c-1.581-0.527-3.426-0.791-5.138-0.791c-9.486,0-17.128,7.642-17.128,17.128 c0,1.186,0.132,2.372,0.395,3.426C6.719,34.783,0,42.424,0,51.515C0,61.66,8.169,69.829,18.314,69.829h63.373 C91.831,69.829,100,61.66,100,51.515C99.868,42.556,93.281,35.046,84.717,33.597z" fill="#1d3f72" transform="scale(1)"></path>
</g><g transform="translate(-100 411.7999155506199) rotate(0)">
  <animateTransform attributeName="transform" type="translate" keyTimes="0;1" values="-100 411.7999155506199;1872 411.7999155506199" dur="5.434782608695652s" repeatCount="indefinite" begin="-6.121761628544102s"></animateTransform>
  <path d="M84.717,33.597c0.791-2.503,1.186-5.138,1.186-7.773C85.903,11.594,74.308,0,60.079,0 c-9.881,0-18.445,5.534-22.793,13.702c-1.581-0.527-3.426-0.791-5.138-0.791c-9.486,0-17.128,7.642-17.128,17.128 c0,1.186,0.132,2.372,0.395,3.426C6.719,34.783,0,42.424,0,51.515C0,61.66,8.169,69.829,18.314,69.829h63.373 C91.831,69.829,100,61.66,100,51.515C99.868,42.556,93.281,35.046,84.717,33.597z" fill="#1d3f72" transform="scale(1)"></path>
</g><g transform="translate(-100 510.7915278768745) rotate(0)">
  <animateTransform attributeName="transform" type="translate" keyTimes="0;1" values="-100 510.7915278768745;1872 510.7915278768745" dur="5.434782608695652s" repeatCount="indefinite" begin="-7.708485422222802s"></animateTransform>
  <path d="M84.717,33.597c0.791-2.503,1.186-5.138,1.186-7.773C85.903,11.594,74.308,0,60.079,0 c-9.881,0-18.445,5.534-22.793,13.702c-1.581-0.527-3.426-0.791-5.138-0.791c-9.486,0-17.128,7.642-17.128,17.128 c0,1.186,0.132,2.372,0.395,3.426C6.719,34.783,0,42.424,0,51.515C0,61.66,8.169,69.829,18.314,69.829h63.373 C91.831,69.829,100,61.66,100,51.515C99.868,42.556,93.281,35.046,84.717,33.597z" fill="#1d3f72" transform="scale(1)"></path>
</g><g transform="translate(-100 610.0489791465957) rotate(0)">
  <animateTransform attributeName="transform" type="translate" keyTimes="0;1" values="-100 610.0489791465957;1872 610.0489791465957" dur="5.434782608695652s" repeatCount="indefinite" begin="-14.184270758369037s"></animateTransform>
  <path d="M84.717,33.597c0.791-2.503,1.186-5.138,1.186-7.773C85.903,11.594,74.308,0,60.079,0 c-9.881,0-18.445,5.534-22.793,13.702c-1.581-0.527-3.426-0.791-5.138-0.791c-9.486,0-17.128,7.642-17.128,17.128 c0,1.186,0.132,2.372,0.395,3.426C6.719,34.783,0,42.424,0,51.515C0,61.66,8.169,69.829,18.314,69.829h63.373 C91.831,69.829,100,61.66,100,51.515C99.868,42.556,93.281,35.046,84.717,33.597z" fill="#1d3f72" transform="scale(1)"></path>
</g><g transform="translate(-100 649.3983170343876) rotate(0)">
  <animateTransform attributeName="transform" type="translate" keyTimes="0;1" values="-100 649.3983170343876;1872 649.3983170343876" dur="5.434782608695652s" repeatCount="indefinite" begin="-17.935384439543636s"></animateTransform>
  <path d="M84.717,33.597c0.791-2.503,1.186-5.138,1.186-7.773C85.903,11.594,74.308,0,60.079,0 c-9.881,0-18.445,5.534-22.793,13.702c-1.581-0.527-3.426-0.791-5.138-0.791c-9.486,0-17.128,7.642-17.128,17.128 c0,1.186,0.132,2.372,0.395,3.426C6.719,34.783,0,42.424,0,51.515C0,61.66,8.169,69.829,18.314,69.829h63.373 C91.831,69.829,100,61.66,100,51.515C99.868,42.556,93.281,35.046,84.717,33.597z" fill="#1d3f72" transform="scale(1)"></path>
</g><g transform="translate(-100 151.8487861414191) rotate(0)">
  <animateTransform attributeName="transform" type="translate" keyTimes="0;1" values="-100 151.8487861414191;1872 151.8487861414191" dur="5.434782608695652s" repeatCount="indefinite" begin="-4.482855613355606s"></animateTransform>
  <path d="M84.717,33.597c0.791-2.503,1.186-5.138,1.186-7.773C85.903,11.594,74.308,0,60.079,0 c-9.881,0-18.445,5.534-22.793,13.702c-1.581-0.527-3.426-0.791-5.138-0.791c-9.486,0-17.128,7.642-17.128,17.128 c0,1.186,0.132,2.372,0.395,3.426C6.719,34.783,0,42.424,0,51.515C0,61.66,8.169,69.829,18.314,69.829h63.373 C91.831,69.829,100,61.66,100,51.515C99.868,42.556,93.281,35.046,84.717,33.597z" fill="#1d3f72" transform="scale(1)"></path>
</g></g>
</svg>