<?xml version="1.0" standalone="no"?>
<!DOCTYPE svg PUBLIC "-//W3C//DTD SVG 20010904//EN"
 "http://www.w3.org/TR/2001/REC-SVG-20010904/DTD/svg10.dtd">
<svg version="1.0" xmlns="http://www.w3.org/2000/svg"
 width="864.000000pt" height="559.000000pt" viewBox="0 0 864.000000 559.000000"
 preserveAspectRatio="xMidYMid meet">

<g transform="translate(0.000000,559.000000) scale(0.100000,-0.100000)"
fill="#000000" stroke="none">
<path d="M4195 5574 c-113 -16 -221 -49 -316 -97 -119 -60 -116 -53 -104 -194
l7 -81 36 -7 c143 -26 353 -156 518 -320 249 -248 452 -556 731 -1110 399
-793 726 -1269 1187 -1731 275 -275 479 -386 706 -386 144 0 252 47 371 159
84 80 212 263 195 280 -2 3 -38 9 -78 14 -99 11 -167 33 -268 85 -241 124
-516 410 -784 814 -145 218 -213 342 -501 918 -271 542 -348 684 -481 884
-281 423 -571 661 -912 749 -75 19 -246 32 -307 23z"/>
<path d="M5520 5461 c0 -5 43 -34 95 -65 345 -206 570 -512 646 -879 22 -105
31 -364 14 -416 -7 -22 -5 -23 16 -17 13 4 79 10 146 13 146 7 248 -7 352 -48
41 -16 78 -26 82 -22 4 4 1 51 -7 103 -94 630 -385 1042 -869 1233 -169 67
-475 130 -475 98z"/>
<path d="M3517 5015 c-96 -24 -211 -90 -289 -166 -38 -37 -68 -73 -66 -80 2
-7 49 -22 104 -34 193 -44 335 -116 471 -239 l62 -57 21 73 c37 124 85 204
175 293 45 44 80 86 77 93 -5 17 -105 66 -199 98 -98 33 -265 42 -356 19z"/>
<path d="M2915 4579 c-83 -10 -239 -70 -311 -121 l-49 -35 0 -124 0 -124 63
-7 c223 -25 443 -172 644 -431 139 -181 249 -384 408 -757 269 -630 482 -984
743 -1237 151 -146 285 -223 475 -270 107 -27 399 -25 515 5 91 23 215 75 268
113 l31 21 -54 22 c-230 94 -473 333 -723 710 -136 206 -214 347 -430 776
-277 551 -354 681 -530 895 -257 313 -537 505 -810 556 -107 20 -132 21 -240
8z"/>
<path d="M2395 3970 c-113 -37 -230 -156 -242 -248 -6 -45 -16 -36 119 -112
45 -25 110 -82 229 -202 91 -93 171 -168 178 -168 9 0 11 55 9 218 -4 260 5
299 79 382 53 59 52 73 -11 104 -99 49 -253 60 -361 26z"/>
<path d="M6572 3828 c165 -129 293 -270 382 -417 60 -99 113 -251 128 -365 13
-102 1 -220 -36 -341 -28 -97 -23 -119 42 -174 99 -85 316 -194 415 -207 38
-5 47 -3 55 12 21 40 37 205 36 369 -1 194 -21 316 -78 467 -131 347 -442 593
-851 671 -163 31 -154 33 -93 -15z"/>
<path d="M1623 3573 c-10 -3 -13 -69 -13 -281 l1 -277 52 -32 c73 -44 174
-139 241 -226 33 -44 109 -175 187 -328 248 -480 363 -651 542 -807 92 -79
201 -136 313 -163 118 -28 338 -23 454 11 94 27 204 79 250 119 l35 30 -29 1
c-52 0 -150 31 -231 73 -112 58 -236 183 -342 344 -46 69 -150 260 -242 442
-226 448 -318 593 -486 769 -149 158 -336 281 -480 317 -55 14 -225 20 -252 8z"/>
<path d="M1151 2970 c-160 -34 -227 -132 -225 -330 3 -294 172 -644 431 -891
124 -119 270 -209 338 -209 28 0 26 3 -50 80 -203 203 -318 522 -318 885 -1
180 14 252 74 361 55 99 51 104 -97 109 -60 2 -129 0 -153 -5z"/>
<path d="M4468 1028 l-58 -10 0 -330 c0 -361 2 -373 60 -403 57 -29 216 -11
206 24 -3 9 -8 37 -12 63 l-6 47 -44 -6 -44 -6 0 317 0 316 -22 -1 c-13 -1
-49 -6 -80 -11z m82 -316 c0 -214 3 -311 11 -319 6 -6 26 -9 44 -6 31 5 33 3
39 -32 4 -20 4 -40 1 -43 -4 -4 -39 -8 -79 -10 -66 -4 -75 -2 -102 21 l-29 25
-3 326 -3 325 28 7 c15 3 33 7 38 9 6 2 20 4 33 4 l22 1 0 -308z"/>
<path d="M7658 933 l-3 -108 -65 -6 c-104 -9 -165 -49 -212 -139 -18 -36 -24
-63 -26 -140 -3 -117 21 -185 81 -234 36 -29 44 -31 120 -31 72 0 86 3 115 25
28 21 35 23 42 10 32 -56 31 -55 108 -25 l71 28 -27 46 -27 46 -5 305 -5 305
-65 12 c-107 20 -99 28 -102 -94z m135 60 c4 -2 7 -113 7 -246 0 -246 9 -347
36 -398 14 -28 14 -30 -13 -40 -58 -22 -76 -17 -99 27 l-21 42 -16 -28 c-25
-42 -79 -63 -146 -58 -114 8 -166 81 -166 234 0 81 3 96 30 149 42 83 100 118
202 123 l73 4 0 105 0 105 53 -7 c28 -4 55 -9 60 -12z"/>
<path d="M7571 707 c-53 -27 -66 -60 -66 -171 0 -116 15 -156 61 -156 74 0
107 64 112 216 l4 111 -32 7 c-44 8 -51 8 -79 -7z m73 -23 c21 -8 22 -121 1
-192 -27 -88 -93 -115 -112 -44 -12 47 -8 156 8 187 20 42 66 63 103 49z"/>
<path d="M5063 1010 c-28 -25 -36 -54 -29 -94 8 -43 35 -66 85 -73 35 -5 44
-2 71 25 40 40 42 101 5 137 -31 32 -101 35 -132 5z m117 -20 c26 -26 25 -60
-1 -94 -25 -31 -66 -35 -100 -8 -28 23 -30 73 -4 102 24 26 79 26 105 0z"/>
<path d="M2135 991 c-88 -22 -149 -76 -194 -171 -22 -47 -26 -72 -29 -172 -7
-193 38 -296 150 -352 42 -21 66 -26 127 -26 76 0 143 11 192 31 l27 10 -21
66 c-24 73 -11 68 -124 44 -58 -11 -89 -4 -122 30 -39 38 -55 110 -49 214 6
95 28 149 69 170 45 24 84 19 124 -16 21 -19 40 -28 45 -23 4 5 27 31 49 59
l41 49 -23 24 c-54 59 -167 86 -262 63z m189 -44 c61 -34 67 -51 30 -88 l-31
-30 -37 22 c-47 27 -108 29 -144 2 -46 -34 -66 -88 -70 -192 -8 -164 29 -252
112 -271 37 -8 106 -1 147 15 13 5 20 -4 32 -39 l16 -46 -51 -15 c-75 -22
-192 -19 -248 6 -58 26 -77 44 -105 99 -71 140 -52 374 38 476 51 59 108 82
207 83 50 1 74 -5 104 -22z"/>
<path d="M560 630 l0 -360 85 0 85 0 0 139 c0 77 4 142 9 146 18 11 62 -19 89
-60 15 -23 45 -83 67 -134 l40 -93 260 4 c240 3 263 5 305 24 111 53 158 166
111 270 -10 22 -30 50 -45 61 -24 19 -24 22 -9 34 9 8 24 32 34 54 50 109 -10
232 -130 265 -20 5 -105 10 -188 10 l-153 0 -2 -347 -3 -348 -49 113 c-27 62
-62 133 -77 157 l-29 46 33 33 c83 82 71 241 -22 303 -53 36 -96 43 -258 43
l-153 0 0 -360z m279 330 c128 -17 181 -67 181 -172 0 -76 -22 -122 -71 -152
l-39 -23 21 -19 c12 -10 32 -35 44 -54 23 -37 105 -217 105 -231 0 -5 -29 -9
-64 -9 l-64 0 -55 113 c-63 128 -88 156 -146 164 l-41 6 0 -142 0 -141 -65 0
-65 0 0 329 0 330 33 4 c62 8 153 6 226 -3z m641 -17 c119 -52 143 -183 50
-266 -34 -31 -37 -37 -20 -42 10 -3 34 -23 53 -45 88 -97 36 -242 -102 -280
-20 -5 -98 -10 -173 -10 l-138 0 0 329 0 330 28 4 c15 3 79 4 142 3 89 -2 125
-7 160 -23z"/>
<path d="M710 776 l0 -106 45 0 c55 0 110 21 124 48 20 38 13 89 -17 123 -23
26 -36 31 -90 36 l-62 6 0 -107z m131 55 c17 -13 23 -29 23 -56 0 -51 -32 -77
-88 -73 l-41 3 -3 73 -3 72 44 0 c29 0 53 -7 68 -19z"/>
<path d="M1288 873 c-16 -4 -18 -17 -18 -100 l0 -96 67 6 c57 4 71 9 90 32 27
31 31 90 8 122 -23 32 -95 50 -147 36z m117 -48 c51 -50 13 -115 -66 -115
l-39 0 0 70 0 70 40 0 c30 0 47 -7 65 -25z"/>
<path d="M1270 491 l0 -101 71 0 c65 0 73 2 100 29 38 38 40 97 5 138 -21 25
-31 28 -100 31 l-76 4 0 -101z m124 69 c65 -24 72 -110 10 -136 -18 -8 -49
-14 -69 -14 l-35 0 0 80 0 80 34 0 c19 0 46 -4 60 -10z"/>
<path d="M6610 630 l0 -360 210 0 210 0 0 75 0 75 -125 0 -125 0 0 285 0 285
-85 0 -85 0 0 -360z m150 45 l0 -285 125 0 125 0 0 -45 0 -45 -190 0 -190 0 0
330 0 330 65 0 65 0 0 -285z"/>
<path d="M4818 942 c-71 -15 -71 -15 -83 -84 -6 -37 -7 -38 -50 -38 l-45 0 0
-70 0 -70 39 0 39 0 4 -163 c4 -185 11 -207 76 -234 43 -18 170 -14 213 6 l26
13 -16 64 c-12 51 -18 63 -30 58 -9 -3 -35 -9 -59 -11 l-43 -6 3 134 3 134 51
3 52 3 7 47 c3 26 9 57 12 70 5 21 3 22 -60 22 l-66 0 -3 68 -3 68 -67 -14z
m52 -87 l0 -65 60 0 c33 0 60 -4 60 -9 0 -5 -3 -23 -6 -40 -6 -30 -8 -31 -61
-31 l-54 0 3 -157 3 -158 58 0 c57 1 57 0 67 -34 6 -22 6 -39 0 -45 -15 -15
-156 -20 -190 -6 -53 22 -60 50 -60 235 l0 165 -45 0 -45 0 0 40 0 40 45 0
c43 0 44 1 50 38 10 61 22 80 52 85 66 10 63 12 63 -58z"/>
<path d="M7148 942 c-71 -15 -71 -15 -83 -84 -6 -37 -7 -38 -50 -38 l-45 0 0
-70 0 -70 39 0 39 0 4 -163 c4 -185 11 -207 76 -234 43 -18 170 -14 213 6 l26
13 -16 64 c-12 51 -18 63 -30 58 -9 -3 -35 -9 -59 -11 l-43 -6 3 134 3 134 51
3 52 3 7 47 c3 26 9 57 12 70 5 21 3 22 -60 22 l-66 0 -3 68 -3 68 -67 -14z
m52 -87 l0 -65 60 0 c33 0 60 -4 60 -9 0 -5 -3 -23 -6 -40 -6 -30 -8 -31 -61
-31 l-54 0 3 -157 3 -158 58 0 c57 1 57 0 67 -34 6 -22 6 -39 0 -45 -15 -15
-156 -20 -190 -6 -53 22 -60 50 -60 235 l0 165 -45 0 -45 0 0 40 0 40 45 0
c43 0 44 1 50 38 10 61 22 80 52 85 66 10 63 12 63 -58z"/>
<path d="M2560 815 c-118 -37 -187 -185 -160 -346 27 -158 136 -232 296 -199
51 10 66 19 110 64 35 36 54 66 65 101 19 67 17 188 -5 252 -38 115 -170 170
-306 128z m183 -29 c44 -18 94 -77 108 -128 17 -65 7 -204 -18 -253 -41 -79
-104 -115 -201 -115 -136 0 -212 88 -212 246 0 167 83 264 228 264 34 0 77 -6
95 -14z"/>
<path d="M2588 693 c-27 -30 -38 -71 -38 -143 0 -76 22 -145 51 -160 29 -16
78 -11 98 9 26 26 34 73 30 170 -5 100 -26 134 -86 139 -28 2 -44 -2 -55 -15z
m90 -24 c52 -55 39 -246 -17 -264 -24 -7 -57 8 -70 33 -16 29 -24 117 -16 167
11 77 62 108 103 64z"/>
<path d="M3567 816 c-73 -27 -117 -86 -117 -156 0 -81 43 -136 135 -174 73
-31 97 -70 50 -82 -17 -4 -46 4 -90 25 l-66 30 -30 -66 c-33 -75 -35 -71 48
-102 141 -54 264 -27 313 69 33 64 24 138 -23 189 -12 12 -53 38 -90 57 -70
36 -88 57 -68 77 9 9 27 6 77 -11 37 -13 67 -22 69 -20 3 5 55 120 55 123 0 2
-25 13 -56 25 -75 28 -159 34 -207 16z m196 -39 l38 -16 -20 -40 -20 -39 -38
14 c-84 30 -142 10 -123 -41 10 -28 32 -44 104 -80 76 -38 101 -71 101 -135 0
-124 -130 -183 -289 -130 l-66 22 16 36 c22 53 26 55 75 33 50 -23 109 -27
127 -9 18 18 15 63 -5 80 -10 9 -41 26 -69 38 -28 12 -66 36 -84 55 -63 65
-46 166 35 213 34 19 51 22 110 19 39 -2 87 -11 108 -20z"/>
<path d="M2940 796 c-30 -12 -55 -26 -54 -31 0 -6 11 -32 24 -60 23 -47 25
-63 28 -242 l4 -193 84 0 84 0 0 163 c0 144 2 166 20 195 25 41 63 60 85 42
12 -10 15 -45 15 -206 l0 -194 85 0 85 0 0 213 c0 250 -8 280 -81 317 -62 32
-162 26 -214 -14 l-37 -29 -25 32 c-28 36 -30 36 -103 7z m99 -47 l18 -39 29
31 c38 41 82 59 144 59 63 0 104 -20 127 -63 15 -27 19 -64 21 -234 l3 -203
-60 0 -60 0 -3 184 c-3 167 -5 186 -23 206 -34 38 -97 12 -133 -55 -12 -23
-17 -67 -20 -182 l-4 -153 -59 0 -59 0 0 170 c0 146 -3 180 -20 231 -12 34
-20 62 -18 64 14 10 85 32 92 28 4 -3 16 -23 25 -44z"/>
<path d="M3870 608 c0 -202 1 -216 23 -258 29 -57 73 -80 153 -80 46 0 73 6
109 25 l48 26 26 -31 26 -32 68 27 c37 15 66 30 64 34 -50 91 -51 100 -55 304
l-4 198 -82 -3 -81 -3 -5 -170 c-5 -185 -15 -218 -66 -231 -52 -13 -53 -10
-56 203 l-3 198 -82 3 -83 3 0 -213z m142 -6 c2 -141 6 -193 17 -205 19 -23
73 -21 99 3 48 45 56 76 60 238 l4 152 59 0 59 0 0 -168 c0 -155 8 -223 34
-283 5 -13 -3 -20 -34 -33 -22 -9 -45 -16 -51 -16 -5 0 -19 20 -30 45 l-20 45
-25 -29 c-56 -67 -187 -81 -244 -26 -41 39 -50 92 -50 289 l0 176 59 0 59 0 4
-188z"/>
<path d="M5047 813 c-4 -3 -7 -102 -7 -220 0 -239 6 -269 62 -303 57 -34 185
-21 174 19 -2 9 -7 37 -11 62 -5 42 -8 46 -30 41 l-25 -4 0 206 0 206 -78 0
c-43 0 -82 -3 -85 -7z m143 -223 l0 -200 25 0 c20 0 25 -6 31 -34 3 -19 3 -39
-1 -45 -3 -6 -31 -11 -61 -11 -48 0 -60 4 -85 29 l-29 29 0 216 0 216 60 0 60
0 0 -200z"/>
<path d="M5307 796 c-32 -12 -59 -24 -59 -27 -1 -2 10 -24 23 -49 23 -43 24
-56 27 -247 l3 -203 85 0 84 0 0 143 c0 156 10 208 45 243 28 28 47 30 69 8
13 -13 16 -46 16 -205 l0 -189 86 0 86 0 -4 218 c-3 195 -5 220 -23 251 -36
61 -67 76 -154 76 -68 0 -83 -3 -119 -27 l-41 -28 -21 30 c-25 35 -27 35 -103
6z m96 -42 l23 -46 18 27 c24 36 90 65 151 65 62 0 93 -15 122 -59 22 -33 23
-42 23 -237 l0 -204 -60 0 -60 0 0 185 c0 172 -1 186 -20 205 -25 25 -43 25
-81 3 -56 -33 -69 -81 -69 -246 l0 -147 -60 0 -60 0 0 138 c0 148 -12 248 -36
294 l-15 28 43 20 c24 10 46 19 50 19 4 1 18 -20 31 -45z"/>
<path d="M5955 796 c-99 -46 -139 -119 -143 -256 -3 -117 21 -185 81 -234 33
-26 48 -31 107 -34 56 -3 77 0 110 17 l40 21 0 -34 c0 -66 -69 -85 -172 -46
-29 11 -55 16 -59 12 -13 -14 -40 -125 -32 -132 28 -26 114 -45 200 -45 85 0
94 2 134 30 85 60 108 159 75 316 -10 48 -12 110 -8 222 l5 156 -24 5 c-93 22
-122 26 -189 26 -58 0 -86 -5 -125 -24z m250 -9 l60 -13 -3 -154 c-3 -116 0
-172 12 -223 47 -201 -22 -317 -189 -317 -44 0 -155 26 -168 39 -9 9 12 91 23
91 4 0 27 -7 50 -15 59 -21 133 -20 153 3 27 30 39 74 32 125 l-7 48 -34 -35
c-53 -54 -159 -62 -222 -17 -64 45 -98 183 -72 289 38 161 162 221 365 179z"/>
<path d="M6031 707 c-47 -24 -63 -59 -68 -148 -6 -101 9 -156 49 -178 25 -14
29 -14 54 5 51 38 68 87 72 210 l4 111 -32 7 c-44 8 -51 8 -79 -7z m73 -23
c36 -14 13 -202 -31 -254 -30 -37 -47 -38 -69 -5 -22 33 -24 168 -4 210 21 42
67 63 104 49z"/>
<path d="M7963 459 c-42 -12 -63 -44 -63 -97 0 -109 139 -142 185 -45 41 86
-30 168 -122 142z m85 -35 c17 -12 22 -25 22 -59 0 -51 -24 -75 -77 -75 -42 0
-73 30 -73 72 0 65 73 101 128 62z"/>
</g>
</svg>
